<svg width="130" height="24" viewBox="0 0 130 24" fill="none" xmlns="http://www.w3.org/2000/svg">
<path d="M130 0L125.643 0.519745V23.6943H130V0ZM121.744 0L117.387 0.519745V23.6943H121.744V0ZM72.6928 21.3401C70.6515 21.3401 69.4329 19.9949 69.4329 17.7631V4.12739H69.0673L62.4865 10.1503V10.4866H65.0762V19.0471C65.0762 22.2879 67.0565 24 69.768 24C71.8702 24 73.5154 22.9911 74.6426 21.1873V20.9732C73.9419 21.2178 73.3326 21.3401 72.6928 21.3401ZM10.2062 21.3401C8.19545 21.3401 6.9768 19.9949 6.9768 17.7631V4.12739H6.6112L0 10.1503V10.4866H2.62011V19.0471C2.62011 22.2879 4.60042 24 7.31193 24C9.38364 24 11.0288 22.9911 12.1865 21.1873V20.9732C11.4858 21.2178 10.846 21.3401 10.2062 21.3401ZM55.1441 8.62166V23.6943H59.5008V8.13248L55.1441 8.62166ZM19.5289 8.13248L15.1723 8.62166V23.6943H19.5289V8.13248ZM105.992 17.0293C106.571 17.2127 107.303 17.335 108.034 17.335C111.385 17.335 114.188 15.0726 114.188 12.3822C114.188 10.028 111.964 8.16306 108.734 8.13248V8.3465C109.77 8.89682 110.014 10.2115 110.014 11.3732C110.014 14.3694 108.156 16.6318 105.992 16.8153V17.0293ZM32.8732 17.0293C33.4521 17.2127 34.1528 17.335 34.9145 17.335C38.2658 17.335 41.0382 15.0726 41.0382 12.3822C41.0382 10.028 38.8142 8.16306 35.5847 8.13248V8.3465C36.6206 8.89682 36.8643 10.2115 36.8643 11.3732C36.8643 14.3694 35.0059 16.6318 32.8732 16.8153V17.0293ZM107.881 8.13248C103.403 8.13248 100.082 11.5261 100.082 16.1732C100.082 20.8204 103.251 24 107.668 24C110.623 24 113.03 22.5019 114.218 19.842V19.5669C113.304 20.3924 111.781 20.8204 110.258 20.8204C106.785 20.8204 104.622 18.6191 104.622 14.9197C104.622 12.1987 105.81 9.32484 107.881 8.3465V8.13248ZM34.7621 8.13248C30.2836 8.13248 26.9323 11.5261 26.9323 16.1732C26.9323 20.8204 30.1008 24 34.5184 24C37.5041 24 39.9109 22.5019 41.0687 19.842V19.5669C40.1547 20.3924 38.6314 20.8204 37.108 20.8204C33.6653 20.8204 31.4718 18.5885 31.4718 14.9197C31.4718 12.1987 32.6904 9.32484 34.7621 8.3465V8.13248ZM43.8411 16.6318C43.8411 20.851 46.2479 24 49.782 24C51.8538 24 53.4075 22.7465 54.3825 20.8204V20.6369C53.8645 20.9121 53.2247 21.0955 52.5545 21.0955C50.1781 21.065 48.4415 18.986 48.4415 15.8064C48.4415 11.6484 50.9702 8.83567 54.2911 8.83567V8.59108C53.5903 8.28535 52.6764 8.13248 51.7319 8.13248C47.2533 8.13248 43.8411 11.7096 43.8411 16.6318ZM70.4992 10.4866H74.734V8.43822H70.4992V10.4866ZM8.04312 10.4866H12.2779V8.43822H8.04312V10.4866ZM90.15 8.43822H85.4582L91.7647 23.9083H92.0694L94.4153 18.986L90.15 8.43822ZM81.6499 8.43822H76.958L83.2646 23.9083H83.5692L85.9152 18.986L81.6499 8.43822ZM94.4762 8.43822C95.2379 9.93631 95.9386 12.8713 95.9386 14.3389H96.1519L99.1376 8.43822H94.4762ZM20.1992 12.6268V12.7796C21.1437 11.8013 22.4842 11.5261 23.7942 11.5261C24.6473 11.5261 25.1348 11.6484 25.5308 11.8318V8.28535C25.2871 8.19363 24.9215 8.13248 24.4645 8.13248C22.0576 8.13248 20.7171 9.78344 20.1992 12.6268Z" fill="white"/>
</svg>
