<svg width="14" height="14" viewBox="0 0 14 14" fill="none" xmlns="http://www.w3.org/2000/svg">
<path fill-rule="evenodd" clip-rule="evenodd" d="M5.66666 8.33331L5.6665 10.082L7.33014 9.5419L7.74216 10.81L6.0785 11.35L7.10677 12.7655L6.02808 13.5492L4.99984 12.1333L3.97191 13.5492L2.89323 12.7655L3.92117 11.3506L2.25784 10.81L2.66986 9.5419L4.33317 10.082L4.33333 8.33331H5.66666ZM11.6667 4.33331L11.6665 6.08198L13.3301 5.5419L13.7422 6.80997L12.0785 7.34998L13.1068 8.7655L12.0281 9.54922L10.9998 8.13331L9.97192 9.54922L8.89323 8.7655L9.92117 7.35065L8.25784 6.80997L8.66986 5.5419L10.3332 6.08198L10.3333 4.33331H11.6667ZM4.33333 0.333313L4.33317 2.08198L5.9968 1.5419L6.40882 2.80997L4.74517 3.34998L5.77343 4.7655L4.69474 5.54921L3.6665 4.13331L2.63858 5.54921L1.55989 4.7655L2.58783 3.34998L0.9245 2.80997L1.33652 1.5419L2.99983 2.08198L3 0.333313H4.33333Z" fill="#515E7F"/>
</svg>
