<svg width="14" height="14" viewBox="0 0 14 14" fill="none" xmlns="http://www.w3.org/2000/svg">
<path fill-rule="evenodd" clip-rule="evenodd" d="M6.33331 9.66665C7.43788 9.66665 8.33331 10.5621 8.33331 11.6667C8.33331 12.7712 7.43788 13.6667 6.33331 13.6667C5.22874 13.6667 4.33331 12.7712 4.33331 11.6667C4.33331 10.5621 5.22874 9.66665 6.33331 9.66665ZM6.33331 11C5.96512 11 5.66665 11.2985 5.66665 11.6667C5.66665 12.0348 5.96512 12.3333 6.33331 12.3333C6.7015 12.3333 6.99998 12.0348 6.99998 11.6667C6.99998 11.2985 6.7015 11 6.33331 11ZM9.07036 0.701843L10.2629 1.29813L7.82398 6.17518L12.7018 3.73703L13.2981 4.9296L6.52013 8.3176L6.17519 8.48029C5.82679 8.64109 5.45705 8.80185 5.08091 8.9523C4.76849 9.07727 4.46476 9.18976 4.17376 9.28676C3.51755 9.5055 2.95311 9.63822 2.48557 9.66258L2.33331 9.66665C1.22874 9.66665 0.333313 8.77122 0.333313 7.66665C0.333313 6.56208 1.22874 5.66665 2.33331 5.66665C3.43788 5.66665 4.33331 6.56208 4.33331 7.66665C4.33331 7.71676 4.33147 7.76643 4.32785 7.81561L4.58572 7.71433C4.82107 7.6202 5.05463 7.52137 5.28158 7.421L5.69754 7.23207L5.83962 7.16523L9.07036 0.701843ZM2.33331 6.99999C1.96512 6.99999 1.66665 7.29846 1.66665 7.66665C1.66665 8.03484 1.96512 8.33332 2.33331 8.33332C2.7015 8.33332 2.99998 8.03484 2.99998 7.66665C2.99998 7.29846 2.7015 6.99999 2.33331 6.99999Z" fill="#515E7F"/>
</svg>
