<svg width="16" height="16" viewBox="0 0 16 16" fill="none" xmlns="http://www.w3.org/2000/svg">
<path fill-rule="evenodd" clip-rule="evenodd" d="M5.99998 0.666687C6.73636 0.666687 7.33331 1.26364 7.33331 2.00002V6.66669H5.99998V10.1834L6.21852 10.252C6.93897 10.4747 7.45297 10.5918 8.00044 10.6398L7.99998 9.33335C7.99998 8.99146 7.74262 8.70968 7.41106 8.67117L7.33331 8.66669H6.66665V7.33335H7.33331C8.43788 7.33335 9.33331 8.22878 9.33331 9.33335V15.3334H1.33331V9.33335C1.33331 8.22878 2.22874 7.33335 3.33331 7.33335H3.99998V8.66669H3.33331C2.99142 8.66669 2.70964 8.92405 2.67113 9.25561L2.66665 9.33335L2.66764 9.35532C3.31444 9.40118 3.89474 9.52255 4.66635 9.75394L4.66665 6.66669H3.33331V2.00002C3.33331 1.26364 3.93027 0.666687 4.66665 0.666687H5.99998ZM12.6666 0.666687C13.7712 0.666687 14.6666 1.56212 14.6666 2.66669V13.3334C14.6666 14.4379 13.7712 15.3334 12.6666 15.3334C11.5621 15.3334 10.6666 14.4379 10.6666 13.3334V2.66669C10.6666 1.56212 11.5621 0.666687 12.6666 0.666687ZM2.66685 10.6936L2.66665 14H7.99998L7.99966 11.9781C7.35281 11.9323 6.77256 11.811 6.00109 11.5797L5.99998 13.3334H4.66665V11.1494L4.44818 11.0814C3.72798 10.8588 3.21409 10.7417 2.66685 10.6936ZM12.6666 2.00002C12.3248 2.00002 12.043 2.25738 12.0045 2.58894L12 2.66669V13.3334C12 13.7015 12.2985 14 12.6666 14C13.0085 14 13.2903 13.7427 13.3288 13.4111L13.3333 13.3334V2.66669C13.3333 2.2985 13.0348 2.00002 12.6666 2.00002ZM5.99998 2.00002H4.66665V5.33335H5.99998V2.00002Z" fill="#515E7F"/>
</svg>
