<svg width="16" height="16" viewBox="0 0 16 16" fill="none" xmlns="http://www.w3.org/2000/svg">
<path fill-rule="evenodd" clip-rule="evenodd" d="M7.33334 10.6667C8.43791 10.6667 9.33334 11.5621 9.33334 12.6667C9.33334 13.7712 8.43791 14.6667 7.33334 14.6667C6.22877 14.6667 5.33334 13.7712 5.33334 12.6667C5.33334 11.5621 6.22877 10.6667 7.33334 10.6667ZM7.33334 12C6.96515 12 6.66668 12.2985 6.66668 12.6667C6.66668 13.0348 6.96515 13.3333 7.33334 13.3333C7.70153 13.3333 8.00001 13.0348 8.00001 12.6667C8.00001 12.2985 7.70153 12 7.33334 12ZM10.0704 1.70184L11.263 2.29813L8.82401 7.17518L13.7019 4.73703L14.2982 5.9296L7.52016 9.3176L7.17522 9.48029C6.82682 9.64109 6.45708 9.80185 6.08094 9.9523C5.76852 10.0773 5.46479 10.1898 5.17379 10.2868C4.51758 10.5055 3.95315 10.6382 3.4856 10.6626L3.33334 10.6667C2.22877 10.6667 1.33334 9.77122 1.33334 8.66665C1.33334 7.56208 2.22877 6.66665 3.33334 6.66665C4.43791 6.66665 5.33334 7.56208 5.33334 8.66665C5.33334 8.71676 5.3315 8.76643 5.32788 8.81561L5.58575 8.71433C5.8211 8.6202 6.05466 8.52137 6.28161 8.421L6.69757 8.23207L6.83965 8.16523L10.0704 1.70184ZM3.33334 7.99999C2.96515 7.99999 2.66668 8.29846 2.66668 8.66665C2.66668 9.03484 2.96515 9.33332 3.33334 9.33332C3.70153 9.33332 4.00001 9.03484 4.00001 8.66665C4.00001 8.29846 3.70153 7.99999 3.33334 7.99999Z" fill="#515E7F"/>
</svg>
